<svg width="20" height="19" viewBox="0 0 20 19" fill="none" xmlns="http://www.w3.org/2000/svg">
<path d="M16.3485 0.5H3.65154C2.19077 0.5 1 1.69077 1 3.15154C1 3.85769 1.27692 4.52231 1.77538 5.02769L7.23077 10.4831V16.8315C7.23077 17.7523 7.97846 18.5 8.89923 18.5C9.34231 18.5 9.77154 18.32 10.0831 18.0085L12.16 15.9315C12.5546 15.5369 12.7692 15.0177 12.7692 14.4638V10.4762L18.2246 5.02077C18.7231 4.52231 19 3.85769 19 3.15154C19 1.69077 17.8092 0.5 16.3485 0.5ZM17.2415 4.04462L11.7931 9.5C11.53 9.76308 11.3846 10.1092 11.3846 10.4831V14.4708C11.3846 14.6508 11.3085 14.8308 11.1838 14.9623L9.10692 17.0392C8.94077 17.1985 8.61539 17.06 8.61539 16.8315V10.4831C8.61539 10.1162 8.47 9.76308 8.20692 9.50692L2.75846 4.04462C2.52308 3.80923 2.38462 3.48385 2.38462 3.15154C2.38462 2.45231 2.95231 1.88462 3.65154 1.88462H16.3485C17.0477 1.88462 17.6154 2.45231 17.6154 3.15154C17.6154 3.48385 17.4769 3.80923 17.2415 4.04462Z" fill="#777777" stroke="#777777" stroke-width="0.75"/>
<path d="M16.3485 0.5H3.65154C2.19077 0.5 1 1.69077 1 3.15154C1 3.85769 1.27692 4.52231 1.77538 5.02769L7.23077 10.4831V16.8315C7.23077 17.7523 7.97846 18.5 8.89923 18.5C9.34231 18.5 9.77154 18.32 10.0831 18.0085L12.16 15.9315C12.5546 15.5369 12.7692 15.0177 12.7692 14.4638V10.4762L18.2246 5.02077C18.7231 4.52231 19 3.85769 19 3.15154C19 1.69077 17.8092 0.5 16.3485 0.5ZM17.2415 4.04462L11.7931 9.5C11.53 9.76308 11.3846 10.1092 11.3846 10.4831V14.4708C11.3846 14.6508 11.3085 14.8308 11.1838 14.9623L9.10692 17.0392C8.94077 17.1985 8.61539 17.06 8.61539 16.8315V10.4831C8.61539 10.1162 8.47 9.76308 8.20692 9.50692L2.75846 4.04462C2.52308 3.80923 2.38462 3.48385 2.38462 3.15154C2.38462 2.45231 2.95231 1.88462 3.65154 1.88462H16.3485C17.0477 1.88462 17.6154 2.45231 17.6154 3.15154C17.6154 3.48385 17.4769 3.80923 17.2415 4.04462Z" fill="#777777"/>
<path d="M16.3485 0.5H3.65154C2.19077 0.5 1 1.69077 1 3.15154C1 3.85769 1.27692 4.52231 1.77538 5.02769L7.23077 10.4831V16.8315C7.23077 17.7523 7.97846 18.5 8.89923 18.5C9.34231 18.5 9.77154 18.32 10.0831 18.0085L12.16 15.9315C12.5546 15.5369 12.7692 15.0177 12.7692 14.4638V10.4762L18.2246 5.02077C18.7231 4.52231 19 3.85769 19 3.15154C19 1.69077 17.8092 0.5 16.3485 0.5ZM17.2415 4.04462L11.7931 9.5C11.53 9.76308 11.3846 10.1092 11.3846 10.4831V14.4708C11.3846 14.6508 11.3085 14.8308 11.1838 14.9623L9.10692 17.0392C8.94077 17.1985 8.61539 17.06 8.61539 16.8315V10.4831C8.61539 10.1162 8.47 9.76308 8.20692 9.50692L2.75846 4.04462C2.52308 3.80923 2.38462 3.48385 2.38462 3.15154C2.38462 2.45231 2.95231 1.88462 3.65154 1.88462H16.3485C17.0477 1.88462 17.6154 2.45231 17.6154 3.15154C17.6154 3.48385 17.4769 3.80923 17.2415 4.04462Z" fill="#777777"/>
</svg>
