<svg width="312" height="500" viewBox="0 0 312 500" fill="none" xmlns="http://www.w3.org/2000/svg">
<path d="M-2.18189e-05 1.51396e-05L312 1.50163e-06L312 244.604L312 499.159L0 499.159L-2.18189e-05 1.51396e-05Z" fill="#44813D"/>
<g opacity="0.3">
<path opacity="0.3" d="M119.154 15.3434L13.2524 116.426L13.2524 143.459L147.476 15.3434L119.154 15.3434Z" fill="#5AA04C"/>
<path opacity="0.3" d="M41.7508 15.3434L13.2524 42.7127L13.2524 69.7466L70.249 15.3433L41.7508 15.3434Z" fill="#5AA04C"/>
<path opacity="0.3" d="M186.705 15.3434L13.2524 180.904L13.2524 214.654L222.064 15.3434L186.705 15.3434Z" fill="#5AA04C"/>
<path opacity="0.3" d="M261.117 15.3434L13.2524 252.098L13.2524 285.848L296.476 15.3434L261.117 15.3434Z" fill="#5AA04C"/>
<path opacity="0.3" d="M298.763 50.6046L13.2524 323.124L13.2524 356.875L298.763 84.3547L298.763 50.6046Z" fill="#5AA04C"/>
<path opacity="0.3" d="M298.763 121.799L13.2524 394.319L13.2524 428.069L298.763 155.549L298.763 121.799Z" fill="#5AA04C"/>
<path opacity="0.3" d="M298.763 192.993L13.2524 465.345L13.2524 483.815L29.2607 483.815L298.763 226.744L298.763 192.993Z" fill="#5AA04C"/>
<path opacity="0.3" d="M298.763 264.02L68.4899 483.815L103.849 483.815L298.763 297.77L298.763 264.02Z" fill="#5AA04C"/>
<path opacity="0.3" d="M298.763 335.214L143.078 483.815L178.437 483.815L298.763 368.964L298.763 335.214Z" fill="#5AA04C"/>
<path opacity="0.3" d="M298.763 406.24L217.49 483.815L246.164 483.815L298.763 433.61L298.763 406.24Z" fill="#5AA04C"/>
</g>
<g opacity="0.5">
<path opacity="0.5" d="M13.2524 446.203L52.6574 483.815L81.1558 483.815L13.2524 419.002L13.2524 446.203Z" fill="#5AA04C"/>
<path opacity="0.5" d="M13.2524 381.558L120.209 483.815L155.568 483.815L13.2524 347.807L13.2524 381.558Z" fill="#5AA04C"/>
<path opacity="0.5" d="M13.2524 310.531L194.797 483.815L230.156 483.815L13.2524 276.781L13.2524 310.531Z" fill="#5AA04C"/>
<path opacity="0.5" d="M13.2524 239.337L269.385 483.815L298.763 483.815L298.763 478.106L13.2524 205.587L13.2524 239.337Z" fill="#5AA04C"/>
<path opacity="0.5" d="M13.2524 168.31L298.763 440.662L298.763 407.08L13.2524 134.56L13.2524 168.31Z" fill="#5AA04C"/>
<path opacity="0.5" d="M13.2524 97.1162L298.763 369.636L298.763 335.886L13.2524 63.3661L13.2524 97.1162Z" fill="#5AA04C"/>
<path opacity="0.5" d="M13.2524 15.3434L13.2524 25.9216L298.763 298.441L298.763 264.691L37.5287 15.3434L13.2524 15.3434Z" fill="#5AA04C"/>
<path opacity="0.5" d="M76.5817 15.3435L298.763 227.415L298.763 193.665L111.941 15.3435L76.5817 15.3435Z" fill="#5AA04C"/>
<path opacity="0.5" d="M151.17 15.3435L298.763 156.221L298.763 128.851L179.845 15.3435L151.17 15.3435Z" fill="#5AA04C"/>
<path opacity="0.5" d="M217.842 15.3434L298.763 92.5825L298.763 65.2129L246.516 15.3434L217.842 15.3434Z" fill="#5AA04C"/>
</g>
<path d="M299.995 14.1678L299.995 484.99L11.8449 484.99L11.8449 13.9999L299.995 13.9999L299.995 14.1678ZM297.356 482.472L297.356 16.5186L14.4836 16.5186L14.4836 482.472L297.356 482.472Z" fill="white"/>
<path d="M13.2524 248.404L13.2524 250.922L298.763 250.922L298.763 248.404L13.2524 248.404Z" fill="white"/>
<path d="M201.482 249.579C201.482 273.591 181.076 293.068 155.92 293.068C130.764 293.068 110.358 273.591 110.358 249.579C110.358 225.568 130.764 206.09 155.92 206.09C181.076 206.09 201.482 225.568 201.482 249.579ZM112.997 249.579C112.997 272.247 132.171 290.55 155.92 290.55C179.669 290.55 198.843 272.247 198.843 249.579C198.843 226.911 179.669 208.609 155.92 208.609C132.347 208.609 112.997 226.911 112.997 249.579Z" fill="white"/>
<path d="M248.628 14.1681L248.628 92.4148L63.3885 92.4148L63.3885 14.1681L248.628 14.1681ZM245.989 89.8961L245.989 16.6867L66.0272 16.6867L66.0272 89.8961L245.989 89.8961Z" fill="white"/>
<path d="M196.908 91.575C196.908 103.497 178.437 113.235 155.92 113.235C133.402 113.235 114.931 103.497 114.931 91.575C114.931 91.4071 114.931 91.239 114.931 91.239L114.931 90.0637L116.163 90.0637L196.732 90.0637L196.732 91.239C196.908 91.407 196.908 91.4071 196.908 91.575ZM117.746 92.4145C118.626 102.657 135.513 110.717 156.096 110.717C176.678 110.717 193.566 102.489 194.445 92.4145L117.746 92.4145Z" fill="white"/>
<path d="M193.742 14.1679L193.742 38.6831L118.45 38.6831L118.45 14.1679L193.742 14.1679ZM191.103 36.1644L191.103 16.6866L121.088 16.6866L121.089 36.1644L191.103 36.1644Z" fill="white"/>
<path d="M248.627 406.744L248.627 484.99L63.3883 484.99L63.3883 406.744L248.627 406.744ZM245.989 482.472L245.989 409.263L66.027 409.263L66.027 482.472L245.989 482.472Z" fill="white"/>
<path d="M196.908 407.583C196.908 407.751 196.908 407.919 196.908 407.919L196.908 409.095L195.677 409.095L115.107 409.095L115.107 407.919C115.107 407.751 115.107 407.584 115.107 407.416C115.107 395.494 133.579 385.755 156.096 385.755C178.613 385.923 196.908 395.662 196.908 407.583ZM117.746 406.744L194.445 406.744C193.566 396.501 176.678 388.442 156.096 388.442C135.338 388.442 118.45 396.501 117.746 406.744Z" fill="white"/>
<path d="M193.742 460.475L193.742 484.99L118.45 484.99L118.45 460.476L193.742 460.475ZM191.103 482.472L191.103 462.994L121.088 462.994L121.089 482.472L191.103 482.472Z" fill="white"/>
<path d="M27.6773 483.815L27.6773 485.158L11.8449 485.158L11.8449 470.046L13.2522 470.046C21.1684 470.046 27.6773 476.091 27.6773 483.815ZM14.4836 482.472L24.8626 482.472C24.3348 477.267 19.937 473.069 14.4836 472.565L14.4836 482.472Z" fill="white"/>
<path d="M299.995 470.046L299.995 485.158L284.162 485.158L284.162 483.815C284.162 476.259 290.671 470.046 298.587 470.046L299.995 470.046ZM297.356 482.472L297.356 472.565C291.902 473.069 287.504 477.267 286.977 482.472L297.356 482.472Z" fill="white"/>
<path d="M299.995 14.1678L299.995 29.2798L298.763 29.2798C290.847 29.2798 284.338 23.0672 284.338 15.5112L284.338 14.1678L299.995 14.1678ZM297.356 26.5932L297.356 16.6865L286.977 16.6865C287.505 21.8917 291.903 25.9216 297.356 26.5932Z" fill="white"/>
<path d="M27.6773 14.1678L27.6773 15.5112C27.6773 23.0672 21.1684 29.2798 13.2522 29.2798L11.8449 29.2798L11.8449 14.1678L27.6773 14.1678ZM14.4836 26.5932C19.937 26.0895 24.3348 21.8917 24.8626 16.6865L14.4836 16.6865L14.4836 26.5932Z" fill="white"/>
<g opacity="0.8">
<line x1="28.5" y1="477.5" x2="283.5" y2="477.5" stroke="#3BCADA" stroke-linecap="round" stroke-dasharray="10 10"/>
<path d="M30.568 466.72C31.3947 466.72 32.0427 466.949 32.512 467.408C32.9867 467.861 33.224 468.512 33.224 469.36C33.224 470.208 32.9867 470.861 32.512 471.32C32.0427 471.773 31.3947 472 30.568 472H28.864V466.72H30.568ZM30.632 471.4C31.2347 471.4 31.704 471.221 32.04 470.864C32.3813 470.501 32.552 470 32.552 469.36C32.552 468.72 32.3813 468.221 32.04 467.864C31.704 467.501 31.2347 467.32 30.632 467.32H29.504V471.4H30.632ZM36.1816 472.08C35.803 472.08 35.4643 471.997 35.1656 471.832C34.8723 471.667 34.643 471.429 34.4776 471.12C34.3123 470.805 34.2296 470.432 34.2296 470C34.2296 469.568 34.3123 469.197 34.4776 468.888C34.643 468.573 34.8696 468.333 35.1576 468.168C35.4456 468.003 35.7736 467.92 36.1416 467.92C36.515 467.92 36.8323 468 37.0936 468.16C37.3603 468.32 37.563 468.539 37.7016 468.816C37.8403 469.088 37.9096 469.395 37.9096 469.736C37.9096 469.827 37.907 469.909 37.9016 469.984C37.8963 470.059 37.8883 470.125 37.8776 470.184H34.6456V469.616H37.5976L37.2696 469.68C37.2696 469.296 37.163 469 36.9496 468.792C36.7416 468.584 36.467 468.48 36.1256 468.48C35.8643 468.48 35.6376 468.541 35.4456 468.664C35.259 468.781 35.1123 468.955 35.0056 469.184C34.9043 469.408 34.8536 469.68 34.8536 470C34.8536 470.315 34.907 470.587 35.0136 470.816C35.1203 471.045 35.2696 471.221 35.4616 471.344C35.659 471.461 35.8936 471.52 36.1656 471.52C36.459 471.52 36.6963 471.464 36.8776 471.352C37.0643 471.24 37.2136 471.088 37.3256 470.896L37.8296 471.192C37.7283 471.373 37.5976 471.531 37.4376 471.664C37.283 471.797 37.099 471.901 36.8856 471.976C36.6776 472.045 36.443 472.08 36.1816 472.08ZM40.7118 466.12C40.8504 466.12 40.9811 466.136 41.1038 466.168C41.2264 466.2 41.3224 466.245 41.3918 466.304L41.2238 466.824C41.1598 466.781 41.0904 466.752 41.0158 466.736C40.9411 466.715 40.8584 466.704 40.7678 466.704C40.5384 466.704 40.3598 466.76 40.2318 466.872C40.1038 466.979 40.0398 467.152 40.0398 467.392V468V468.208V472H39.3997V467.328C39.3997 467.152 39.4264 466.989 39.4798 466.84C39.5331 466.691 39.6131 466.563 39.7198 466.456C39.8318 466.349 39.9704 466.267 40.1358 466.208C40.3011 466.149 40.4931 466.12 40.7118 466.12ZM41.3758 468V468.552H38.5998V468H41.3758ZM43.791 472.08C43.4123 472.08 43.0737 471.997 42.775 471.832C42.4817 471.667 42.2523 471.429 42.087 471.12C41.9217 470.805 41.839 470.432 41.839 470C41.839 469.568 41.9217 469.197 42.087 468.888C42.2523 468.573 42.479 468.333 42.767 468.168C43.055 468.003 43.383 467.92 43.751 467.92C44.1243 467.92 44.4417 468 44.703 468.16C44.9697 468.32 45.1723 468.539 45.311 468.816C45.4497 469.088 45.519 469.395 45.519 469.736C45.519 469.827 45.5163 469.909 45.511 469.984C45.5057 470.059 45.4977 470.125 45.487 470.184H42.255V469.616H45.207L44.879 469.68C44.879 469.296 44.7723 469 44.559 468.792C44.351 468.584 44.0763 468.48 43.735 468.48C43.4737 468.48 43.247 468.541 43.055 468.664C42.8683 468.781 42.7217 468.955 42.615 469.184C42.5137 469.408 42.463 469.68 42.463 470C42.463 470.315 42.5163 470.587 42.623 470.816C42.7297 471.045 42.879 471.221 43.071 471.344C43.2683 471.461 43.503 471.52 43.775 471.52C44.0683 471.52 44.3057 471.464 44.487 471.352C44.6737 471.24 44.823 471.088 44.935 470.896L45.439 471.192C45.3377 471.373 45.207 471.531 45.047 471.664C44.8923 471.797 44.7083 471.901 44.495 471.976C44.287 472.045 44.0523 472.08 43.791 472.08ZM48.1762 472.08C47.7869 472.08 47.4269 471.997 47.0962 471.832C46.7709 471.667 46.5202 471.432 46.3442 471.128L46.8882 470.736C47.0055 470.981 47.1762 471.173 47.4002 471.312C47.6295 471.451 47.9042 471.52 48.2242 471.52C48.5069 471.52 48.7282 471.467 48.8882 471.36C49.0482 471.248 49.1282 471.104 49.1282 470.928C49.1282 470.816 49.0909 470.715 49.0162 470.624C48.9469 470.528 48.8109 470.459 48.6082 470.416L47.6482 470.216C47.2589 470.136 46.9789 470.003 46.8082 469.816C46.6429 469.629 46.5602 469.397 46.5602 469.12C46.5602 468.901 46.6215 468.701 46.7442 468.52C46.8722 468.339 47.0509 468.195 47.2802 468.088C47.5149 467.976 47.7895 467.92 48.1042 467.92C48.4989 467.92 48.8322 467.997 49.1042 468.152C49.3762 468.307 49.5789 468.525 49.7122 468.808L49.1762 469.16C49.0855 468.925 48.9389 468.755 48.7362 468.648C48.5335 468.536 48.3229 468.48 48.1042 468.48C47.9122 468.48 47.7469 468.507 47.6082 468.56C47.4749 468.613 47.3709 468.688 47.2962 468.784C47.2269 468.875 47.1922 468.979 47.1922 469.096C47.1922 469.213 47.2322 469.323 47.3122 469.424C47.3922 469.52 47.5415 469.589 47.7602 469.632L48.7602 469.84C49.1335 469.915 49.3949 470.037 49.5442 470.208C49.6935 470.379 49.7682 470.587 49.7682 470.832C49.7682 471.083 49.7015 471.304 49.5682 471.496C49.4349 471.683 49.2482 471.827 49.0082 471.928C48.7682 472.029 48.4909 472.08 48.1762 472.08ZM53.2909 469.416C53.2909 469.117 53.2109 468.888 53.0509 468.728C52.8909 468.563 52.6643 468.48 52.3709 468.48C52.0936 468.48 51.8589 468.541 51.6669 468.664C51.4749 468.781 51.3336 468.973 51.2429 469.24L50.7229 468.92C50.8296 468.621 51.0269 468.381 51.3149 468.2C51.6029 468.013 51.9603 467.92 52.3869 467.92C52.6749 467.92 52.9363 467.971 53.1709 468.072C53.4056 468.168 53.5896 468.317 53.7229 468.52C53.8616 468.717 53.9309 468.973 53.9309 469.288V471.224C53.9309 471.416 54.0323 471.512 54.2349 471.512C54.3363 471.512 54.4349 471.499 54.5309 471.472L54.4989 471.976C54.3923 472.029 54.2536 472.056 54.0829 472.056C53.9283 472.056 53.7896 472.027 53.6669 471.968C53.5443 471.909 53.4483 471.821 53.3789 471.704C53.3096 471.581 53.2749 471.429 53.2749 471.248V471.168L53.4349 471.192C53.3709 471.4 53.2616 471.571 53.1069 471.704C52.9523 471.832 52.7789 471.928 52.5869 471.992C52.3949 472.051 52.2056 472.08 52.0189 472.08C51.7843 472.08 51.5656 472.04 51.3629 471.96C51.1603 471.88 50.9976 471.76 50.8749 471.6C50.7576 471.435 50.6989 471.232 50.6989 470.992C50.6989 470.693 50.7976 470.448 50.9949 470.256C51.1976 470.059 51.4776 469.925 51.8349 469.856L53.4189 469.544V470.072L52.1309 470.336C51.8696 470.389 51.6749 470.464 51.5469 470.56C51.4189 470.656 51.3549 470.789 51.3549 470.96C51.3549 471.125 51.4189 471.261 51.5469 471.368C51.6803 471.469 51.8669 471.52 52.1069 471.52C52.2616 471.52 52.4083 471.501 52.5469 471.464C52.6909 471.421 52.8189 471.36 52.9309 471.28C53.0429 471.195 53.1309 471.091 53.1949 470.968C53.2589 470.84 53.2909 470.691 53.2909 470.52V469.416Z" fill="#3BCADA"/>
</g>
<g opacity="0.8">
<line x1="27.5" y1="297.5" x2="282.5" y2="297.5" stroke="#3BCADA" stroke-linecap="round" stroke-dasharray="10 10"/>
<path d="M33.968 286.72V292H33.36V288.68L33.432 287.288H33.424L31.688 292H31.144L29.408 287.288H29.4L29.472 288.68V292H28.864V286.72H29.848L31.008 289.928L31.408 291.248H31.424L31.832 289.936L32.984 286.72H33.968ZM37.1816 292.08C36.803 292.08 36.4643 291.997 36.1656 291.832C35.8723 291.667 35.643 291.429 35.4776 291.12C35.3123 290.805 35.2296 290.432 35.2296 290C35.2296 289.568 35.3123 289.197 35.4776 288.888C35.643 288.573 35.8696 288.333 36.1576 288.168C36.4456 288.003 36.7736 287.92 37.1416 287.92C37.515 287.92 37.8323 288 38.0936 288.16C38.3603 288.32 38.563 288.539 38.7016 288.816C38.8403 289.088 38.9096 289.395 38.9096 289.736C38.9096 289.827 38.907 289.909 38.9016 289.984C38.8963 290.059 38.8883 290.125 38.8776 290.184H35.6456V289.616H38.5976L38.2696 289.68C38.2696 289.296 38.163 289 37.9496 288.792C37.7416 288.584 37.467 288.48 37.1256 288.48C36.8643 288.48 36.6376 288.541 36.4456 288.664C36.259 288.781 36.1123 288.955 36.0056 289.184C35.9043 289.408 35.8536 289.68 35.8536 290C35.8536 290.315 35.907 290.587 36.0136 290.816C36.1203 291.045 36.2696 291.221 36.4616 291.344C36.659 291.461 36.8936 291.52 37.1656 291.52C37.459 291.52 37.6963 291.464 37.8776 291.352C38.0643 291.24 38.2136 291.088 38.3256 290.896L38.8296 291.192C38.7283 291.373 38.5976 291.531 38.4376 291.664C38.283 291.797 38.099 291.901 37.8856 291.976C37.6776 292.045 37.443 292.08 37.1816 292.08ZM40.4468 287.232C40.3028 287.232 40.1855 287.189 40.0948 287.104C40.0095 287.013 39.9668 286.896 39.9668 286.752C39.9668 286.608 40.0095 286.493 40.0948 286.408C40.1855 286.317 40.3028 286.272 40.4468 286.272C40.5908 286.272 40.7055 286.317 40.7908 286.408C40.8815 286.493 40.9268 286.608 40.9268 286.752C40.9268 286.896 40.8815 287.013 40.7908 287.104C40.7055 287.189 40.5908 287.232 40.4468 287.232ZM40.7668 288V292H40.1268V288H40.7668ZM43.9078 287.92C44.2865 287.92 44.6198 288.003 44.9078 288.168C45.2011 288.333 45.4305 288.573 45.5958 288.888C45.7611 289.197 45.8438 289.568 45.8438 290C45.8438 290.432 45.7611 290.805 45.5958 291.12C45.4305 291.429 45.2011 291.667 44.9078 291.832C44.6198 291.997 44.2865 292.08 43.9078 292.08C43.5345 292.08 43.2011 291.997 42.9078 291.832C42.6145 291.667 42.3851 291.429 42.2198 291.12C42.0545 290.805 41.9718 290.432 41.9718 290C41.9718 289.568 42.0545 289.197 42.2198 288.888C42.3851 288.573 42.6145 288.333 42.9078 288.168C43.2011 288.003 43.5345 287.92 43.9078 287.92ZM43.9078 288.472C43.6358 288.472 43.4038 288.533 43.2118 288.656C43.0198 288.779 42.8705 288.955 42.7638 289.184C42.6625 289.408 42.6118 289.68 42.6118 290C42.6118 290.315 42.6625 290.587 42.7638 290.816C42.8705 291.045 43.0198 291.221 43.2118 291.344C43.4038 291.467 43.6358 291.528 43.9078 291.528C44.1798 291.528 44.4118 291.467 44.6038 291.344C44.7958 291.221 44.9425 291.045 45.0438 290.816C45.1505 290.587 45.2038 290.315 45.2038 290C45.2038 289.68 45.1505 289.408 45.0438 289.184C44.9425 288.955 44.7958 288.779 44.6038 288.656C44.4118 288.533 44.1798 288.472 43.9078 288.472ZM49.6647 289.576V290.24H47.0247V289.576H49.6647ZM52.7828 287.92C53.0601 287.92 53.3028 287.963 53.5108 288.048C53.7241 288.133 53.9081 288.256 54.0628 288.416C54.2175 288.576 54.3428 288.765 54.4388 288.984L53.8308 289.272C53.7455 289.016 53.6148 288.821 53.4388 288.688C53.2681 288.549 53.0441 288.48 52.7668 288.48C52.5001 288.48 52.2708 288.541 52.0788 288.664C51.8868 288.781 51.7401 288.955 51.6388 289.184C51.5375 289.408 51.4868 289.68 51.4868 290C51.4868 290.315 51.5375 290.587 51.6388 290.816C51.7401 291.045 51.8868 291.221 52.0788 291.344C52.2708 291.461 52.5001 291.52 52.7668 291.52C52.9748 291.52 53.1535 291.488 53.3028 291.424C53.4575 291.36 53.5828 291.267 53.6788 291.144C53.7801 291.021 53.8495 290.872 53.8868 290.696L54.4788 290.904C54.3881 291.149 54.2628 291.36 54.1028 291.536C53.9481 291.712 53.7588 291.848 53.5348 291.944C53.3161 292.035 53.0655 292.08 52.7828 292.08C52.4095 292.08 52.0761 291.997 51.7828 291.832C51.4895 291.667 51.2601 291.429 51.0948 291.12C50.9295 290.805 50.8468 290.432 50.8468 290C50.8468 289.568 50.9295 289.197 51.0948 288.888C51.2601 288.573 51.4895 288.333 51.7828 288.168C52.0761 288.003 52.4095 287.92 52.7828 287.92ZM57.9394 289.416C57.9394 289.117 57.8594 288.888 57.6994 288.728C57.5394 288.563 57.3127 288.48 57.0194 288.48C56.742 288.48 56.5074 288.541 56.3154 288.664C56.1234 288.781 55.982 288.973 55.8914 289.24L55.3714 288.92C55.478 288.621 55.6754 288.381 55.9634 288.2C56.2514 288.013 56.6087 287.92 57.0354 287.92C57.3234 287.92 57.5847 287.971 57.8194 288.072C58.054 288.168 58.238 288.317 58.3714 288.52C58.51 288.717 58.5794 288.973 58.5794 289.288V291.224C58.5794 291.416 58.6807 291.512 58.8834 291.512C58.9847 291.512 59.0834 291.499 59.1794 291.472L59.1474 291.976C59.0407 292.029 58.902 292.056 58.7314 292.056C58.5767 292.056 58.438 292.027 58.3154 291.968C58.1927 291.909 58.0967 291.821 58.0274 291.704C57.958 291.581 57.9234 291.429 57.9234 291.248V291.168L58.0834 291.192C58.0194 291.4 57.91 291.571 57.7554 291.704C57.6007 291.832 57.4274 291.928 57.2354 291.992C57.0434 292.051 56.854 292.08 56.6674 292.08C56.4327 292.08 56.214 292.04 56.0114 291.96C55.8087 291.88 55.646 291.76 55.5234 291.6C55.406 291.435 55.3474 291.232 55.3474 290.992C55.3474 290.693 55.446 290.448 55.6434 290.256C55.846 290.059 56.126 289.925 56.4834 289.856L58.0674 289.544V290.072L56.7794 290.336C56.518 290.389 56.3234 290.464 56.1954 290.56C56.0674 290.656 56.0034 290.789 56.0034 290.96C56.0034 291.125 56.0674 291.261 56.1954 291.368C56.3287 291.469 56.5154 291.52 56.7554 291.52C56.91 291.52 57.0567 291.501 57.1954 291.464C57.3394 291.421 57.4674 291.36 57.5794 291.28C57.6914 291.195 57.7794 291.091 57.8434 290.968C57.9074 290.84 57.9394 290.691 57.9394 290.52V289.416ZM60.1346 292V288H60.6946L60.7346 288.624C60.8786 288.379 61.0653 288.2 61.2946 288.088C61.5293 287.976 61.7693 287.92 62.0146 287.92C62.2973 287.92 62.564 287.984 62.8146 288.112C63.0653 288.24 63.2573 288.437 63.3906 288.704C63.476 288.523 63.596 288.376 63.7506 288.264C63.9053 288.147 64.0733 288.061 64.2546 288.008C64.4413 287.949 64.6173 287.92 64.7826 287.92C65.0386 287.92 65.2813 287.973 65.5106 288.08C65.7453 288.187 65.9373 288.352 66.0866 288.576C66.236 288.8 66.3106 289.088 66.3106 289.44V292H65.6706V289.504C65.6706 289.141 65.58 288.88 65.3986 288.72C65.2173 288.56 64.9933 288.48 64.7266 288.48C64.5186 288.48 64.324 288.531 64.1426 288.632C63.9613 288.733 63.8146 288.883 63.7026 289.08C63.596 289.277 63.5426 289.52 63.5426 289.808V292H62.9026V289.504C62.9026 289.141 62.812 288.88 62.6306 288.72C62.4493 288.56 62.2253 288.48 61.9586 288.48C61.7826 288.48 61.6013 288.528 61.4146 288.624C61.2333 288.715 61.0813 288.861 60.9586 289.064C60.836 289.267 60.7746 289.533 60.7746 289.864V292H60.1346ZM67.7596 293.68V288H68.3196L68.3756 288.976L68.2876 288.864C68.357 288.677 68.461 288.515 68.5996 288.376C68.7383 288.232 68.9063 288.12 69.1036 288.04C69.301 287.96 69.5143 287.92 69.7436 287.92C70.069 287.92 70.3676 288.003 70.6396 288.168C70.917 288.333 71.1383 288.571 71.3036 288.88C71.469 289.189 71.5516 289.563 71.5516 290C71.5516 290.432 71.4663 290.805 71.2956 291.12C71.1303 291.429 70.909 291.667 70.6316 291.832C70.3543 291.997 70.0503 292.08 69.7196 292.08C69.389 292.08 69.0983 292 68.8476 291.84C68.6023 291.675 68.4263 291.467 68.3196 291.216L68.3996 291.096V293.68H67.7596ZM69.6556 291.52C70.0503 291.52 70.357 291.381 70.5756 291.104C70.7996 290.827 70.9116 290.459 70.9116 290C70.9116 289.541 70.8023 289.173 70.5836 288.896C70.3703 288.619 70.069 288.48 69.6796 288.48C69.4236 288.48 69.1996 288.544 69.0076 288.672C68.8156 288.795 68.6663 288.971 68.5596 289.2C68.453 289.424 68.3996 289.691 68.3996 290C68.3996 290.304 68.4503 290.571 68.5516 290.8C68.6583 291.029 68.805 291.208 68.9916 291.336C69.1836 291.459 69.405 291.52 69.6556 291.52ZM74.4313 287.92C74.8099 287.92 75.1433 288.003 75.4313 288.168C75.7246 288.333 75.9539 288.573 76.1193 288.888C76.2846 289.197 76.3673 289.568 76.3673 290C76.3673 290.432 76.2846 290.805 76.1193 291.12C75.9539 291.429 75.7246 291.667 75.4313 291.832C75.1433 291.997 74.8099 292.08 74.4313 292.08C74.0579 292.08 73.7246 291.997 73.4313 291.832C73.1379 291.667 72.9086 291.429 72.7433 291.12C72.5779 290.805 72.4953 290.432 72.4953 290C72.4953 289.568 72.5779 289.197 72.7433 288.888C72.9086 288.573 73.1379 288.333 73.4313 288.168C73.7246 288.003 74.0579 287.92 74.4313 287.92ZM74.4313 288.472C74.1593 288.472 73.9273 288.533 73.7353 288.656C73.5433 288.779 73.3939 288.955 73.2873 289.184C73.1859 289.408 73.1353 289.68 73.1353 290C73.1353 290.315 73.1859 290.587 73.2873 290.816C73.3939 291.045 73.5433 291.221 73.7353 291.344C73.9273 291.467 74.1593 291.528 74.4313 291.528C74.7033 291.528 74.9353 291.467 75.1273 291.344C75.3193 291.221 75.4659 291.045 75.5673 290.816C75.6739 290.587 75.7273 290.315 75.7273 290C75.7273 289.68 75.6739 289.408 75.5673 289.184C75.4659 288.955 75.3193 288.779 75.1273 288.656C74.9353 288.533 74.7033 288.472 74.4313 288.472Z" fill="#3BCADA"/>
</g>
<g opacity="0.8">
<line x1="28.5" y1="123.5" x2="283.5" y2="123.5" stroke="#3BCADA" stroke-linecap="round" stroke-dasharray="10 10"/>
<path d="M33.072 118H32.392L31.832 116.536H29.44L28.88 118H28.208L30.264 112.72H31.024L33.072 118ZM29.672 115.936H31.6L30.632 113.336L29.672 115.936ZM34.688 112.864V116.896C34.688 117.093 34.744 117.24 34.856 117.336C34.968 117.432 35.112 117.48 35.288 117.48C35.4427 117.48 35.576 117.453 35.688 117.4C35.8 117.347 35.9013 117.275 35.992 117.184L36.216 117.72C36.0933 117.832 35.9467 117.92 35.776 117.984C35.6107 118.048 35.4187 118.08 35.2 118.08C34.9973 118.08 34.808 118.045 34.632 117.976C34.456 117.901 34.3147 117.787 34.208 117.632C34.1067 117.472 34.0533 117.264 34.048 117.008V113.04L34.688 112.864ZM36.144 114V114.552H33.248V114H36.144ZM39.4316 115.416C39.4316 115.117 39.3516 114.888 39.1916 114.728C39.0316 114.563 38.8049 114.48 38.5116 114.48C38.2342 114.48 37.9996 114.541 37.8076 114.664C37.6156 114.781 37.4742 114.973 37.3836 115.24L36.8636 114.92C36.9702 114.621 37.1676 114.381 37.4556 114.2C37.7436 114.013 38.1009 113.92 38.5276 113.92C38.8156 113.92 39.0769 113.971 39.3116 114.072C39.5462 114.168 39.7302 114.317 39.8636 114.52C40.0022 114.717 40.0716 114.973 40.0716 115.288V117.224C40.0716 117.416 40.1729 117.512 40.3756 117.512C40.4769 117.512 40.5756 117.499 40.6716 117.472L40.6396 117.976C40.5329 118.029 40.3942 118.056 40.2236 118.056C40.0689 118.056 39.9302 118.027 39.8076 117.968C39.6849 117.909 39.5889 117.821 39.5196 117.704C39.4502 117.581 39.4156 117.429 39.4156 117.248V117.168L39.5756 117.192C39.5116 117.4 39.4022 117.571 39.2476 117.704C39.0929 117.832 38.9196 117.928 38.7276 117.992C38.5356 118.051 38.3462 118.08 38.1596 118.08C37.9249 118.08 37.7062 118.04 37.5036 117.96C37.3009 117.88 37.1382 117.76 37.0156 117.6C36.8982 117.435 36.8396 117.232 36.8396 116.992C36.8396 116.693 36.9382 116.448 37.1356 116.256C37.3382 116.059 37.6182 115.925 37.9756 115.856L39.5596 115.544V116.072L38.2716 116.336C38.0102 116.389 37.8156 116.464 37.6876 116.56C37.5596 116.656 37.4956 116.789 37.4956 116.96C37.4956 117.125 37.5596 117.261 37.6876 117.368C37.8209 117.469 38.0076 117.52 38.2476 117.52C38.4022 117.52 38.5489 117.501 38.6876 117.464C38.8316 117.421 38.9596 117.36 39.0716 117.28C39.1836 117.195 39.2716 117.091 39.3356 116.968C39.3996 116.84 39.4316 116.691 39.4316 116.52V115.416ZM44.5148 119.68V116.904L44.6268 116.984C44.5895 117.219 44.4988 117.419 44.3548 117.584C44.2161 117.744 44.0428 117.867 43.8348 117.952C43.6321 118.037 43.4161 118.08 43.1868 118.08C42.8561 118.08 42.5521 117.997 42.2748 117.832C41.9975 117.667 41.7761 117.429 41.6108 117.12C41.4455 116.805 41.3628 116.432 41.3628 116C41.3628 115.557 41.4508 115.181 41.6268 114.872C41.8028 114.563 42.0348 114.328 42.3228 114.168C42.6108 114.003 42.9201 113.92 43.2508 113.92C43.4748 113.92 43.6828 113.963 43.8748 114.048C44.0668 114.128 44.2295 114.245 44.3628 114.4C44.5015 114.549 44.5921 114.728 44.6348 114.936H44.5388L44.5948 114H45.1548V119.68H44.5148ZM43.2508 117.52C43.5015 117.52 43.7201 117.459 43.9068 117.336C44.0988 117.208 44.2481 117.029 44.3548 116.8C44.4615 116.565 44.5148 116.291 44.5148 115.976C44.5148 115.656 44.4615 115.387 44.3548 115.168C44.2535 114.944 44.1095 114.773 43.9228 114.656C43.7361 114.539 43.5175 114.48 43.2668 114.48C42.8721 114.48 42.5628 114.619 42.3388 114.896C42.1148 115.173 42.0028 115.541 42.0028 116C42.0028 116.459 42.1121 116.827 42.3308 117.104C42.5495 117.381 42.8561 117.52 43.2508 117.52ZM48.0904 118.08C47.8344 118.08 47.5918 118.032 47.3624 117.936C47.1384 117.84 46.9544 117.685 46.8104 117.472C46.6718 117.253 46.6024 116.971 46.6024 116.624V114H47.2424V116.456C47.2424 116.861 47.3304 117.141 47.5064 117.296C47.6824 117.445 47.9304 117.52 48.2504 117.52C48.3998 117.52 48.5464 117.496 48.6904 117.448C48.8344 117.395 48.9624 117.315 49.0744 117.208C49.1918 117.096 49.2824 116.955 49.3464 116.784C49.4158 116.613 49.4504 116.411 49.4504 116.176V114H50.0904V118H49.5304L49.4904 117.392C49.3518 117.632 49.1624 117.808 48.9224 117.92C48.6878 118.027 48.4104 118.08 48.0904 118.08ZM53.2519 118.08C52.8733 118.08 52.5346 117.997 52.2359 117.832C51.9426 117.667 51.7133 117.429 51.5479 117.12C51.3826 116.805 51.2999 116.432 51.2999 116C51.2999 115.568 51.3826 115.197 51.5479 114.888C51.7133 114.573 51.9399 114.333 52.2279 114.168C52.5159 114.003 52.8439 113.92 53.2119 113.92C53.5853 113.92 53.9026 114 54.1639 114.16C54.4306 114.32 54.6333 114.539 54.7719 114.816C54.9106 115.088 54.9799 115.395 54.9799 115.736C54.9799 115.827 54.9773 115.909 54.9719 115.984C54.9666 116.059 54.9586 116.125 54.9479 116.184H51.7159V115.616H54.6679L54.3399 115.68C54.3399 115.296 54.2333 115 54.0199 114.792C53.8119 114.584 53.5373 114.48 53.1959 114.48C52.9346 114.48 52.7079 114.541 52.5159 114.664C52.3293 114.781 52.1826 114.955 52.0759 115.184C51.9746 115.408 51.9239 115.68 51.9239 116C51.9239 116.315 51.9773 116.587 52.0839 116.816C52.1906 117.045 52.3399 117.221 52.5319 117.344C52.7293 117.461 52.9639 117.52 53.2359 117.52C53.5293 117.52 53.7666 117.464 53.9479 117.352C54.1346 117.24 54.2839 117.088 54.3959 116.896L54.8999 117.192C54.7986 117.373 54.6679 117.531 54.5079 117.664C54.3533 117.797 54.1693 117.901 53.9559 117.976C53.7479 118.045 53.5133 118.08 53.2519 118.08Z" fill="#3BCADA"/>
</g>
<path d="M141.728 475.833C141.108 475.833 140.571 475.696 140.118 475.423C139.665 475.15 139.311 474.763 139.058 474.263C138.805 473.756 138.678 473.146 138.678 472.433C138.678 471.733 138.808 471.13 139.068 470.623C139.335 470.116 139.708 469.726 140.188 469.453C140.675 469.173 141.231 469.033 141.858 469.033C142.545 469.033 143.098 469.16 143.518 469.413C143.945 469.666 144.285 470.06 144.538 470.593L143.548 471.063C143.421 470.696 143.211 470.423 142.918 470.243C142.631 470.056 142.281 469.963 141.868 469.963C141.455 469.963 141.091 470.06 140.778 470.253C140.471 470.446 140.231 470.73 140.058 471.103C139.885 471.47 139.798 471.913 139.798 472.433C139.798 472.96 139.875 473.41 140.028 473.783C140.181 474.15 140.411 474.43 140.718 474.623C141.031 474.816 141.415 474.913 141.868 474.913C142.115 474.913 142.345 474.883 142.558 474.823C142.771 474.756 142.958 474.663 143.118 474.543C143.278 474.416 143.401 474.26 143.488 474.073C143.581 473.88 143.628 473.653 143.628 473.393V473.203H141.708V472.333H144.578V475.733H143.778L143.718 474.403L143.918 474.503C143.758 474.923 143.491 475.25 143.118 475.483C142.751 475.716 142.288 475.833 141.728 475.833ZM148.304 470.633C148.791 470.633 149.221 470.736 149.594 470.943C149.968 471.15 150.258 471.45 150.464 471.843C150.678 472.23 150.784 472.693 150.784 473.233C150.784 473.773 150.678 474.24 150.464 474.633C150.258 475.02 149.968 475.316 149.594 475.523C149.221 475.73 148.791 475.833 148.304 475.833C147.818 475.833 147.388 475.73 147.014 475.523C146.641 475.316 146.348 475.02 146.134 474.633C145.921 474.24 145.814 473.773 145.814 473.233C145.814 472.693 145.921 472.23 146.134 471.843C146.348 471.45 146.641 471.15 147.014 470.943C147.388 470.736 147.818 470.633 148.304 470.633ZM148.304 471.473C148.004 471.473 147.748 471.543 147.534 471.683C147.328 471.816 147.168 472.013 147.054 472.273C146.941 472.533 146.884 472.853 146.884 473.233C146.884 473.606 146.941 473.926 147.054 474.193C147.168 474.453 147.328 474.653 147.534 474.793C147.748 474.926 148.004 474.993 148.304 474.993C148.604 474.993 148.858 474.926 149.064 474.793C149.271 474.653 149.431 474.453 149.544 474.193C149.658 473.926 149.714 473.606 149.714 473.233C149.714 472.853 149.658 472.533 149.544 472.273C149.431 472.013 149.271 471.816 149.064 471.683C148.858 471.543 148.604 471.473 148.304 471.473ZM153.17 468.483V474.333C153.17 474.58 153.214 474.75 153.3 474.843C153.387 474.936 153.53 474.983 153.73 474.983C153.85 474.983 153.95 474.976 154.03 474.963C154.117 474.943 154.224 474.91 154.35 474.863L154.23 475.663C154.117 475.716 153.987 475.756 153.84 475.783C153.694 475.816 153.547 475.833 153.4 475.833C152.954 475.833 152.624 475.72 152.41 475.493C152.204 475.26 152.1 474.903 152.1 474.423V468.483H153.17ZM157.446 475.833C156.946 475.833 156.506 475.73 156.126 475.523C155.746 475.316 155.449 475.02 155.236 474.633C155.029 474.24 154.926 473.773 154.926 473.233C154.926 472.693 155.029 472.23 155.236 471.843C155.449 471.45 155.742 471.15 156.116 470.943C156.489 470.736 156.912 470.633 157.386 470.633C157.872 470.633 158.286 470.733 158.626 470.933C158.966 471.133 159.226 471.406 159.406 471.753C159.586 472.1 159.676 472.493 159.676 472.933C159.676 473.053 159.672 473.166 159.666 473.273C159.659 473.38 159.649 473.473 159.636 473.553H155.616V472.733H159.166L158.636 472.893C158.636 472.44 158.522 472.093 158.296 471.853C158.069 471.606 157.759 471.483 157.366 471.483C157.079 471.483 156.829 471.55 156.616 471.683C156.402 471.816 156.239 472.016 156.126 472.283C156.012 472.543 155.956 472.863 155.956 473.243C155.956 473.616 156.016 473.933 156.136 474.193C156.256 474.453 156.426 474.65 156.646 474.783C156.866 474.916 157.126 474.983 157.426 474.983C157.759 474.983 158.029 474.92 158.236 474.793C158.442 474.666 158.606 474.49 158.726 474.263L159.576 474.663C159.456 474.903 159.292 475.113 159.086 475.293C158.886 475.466 158.646 475.6 158.366 475.693C158.086 475.786 157.779 475.833 157.446 475.833ZM161.567 469.893C161.334 469.893 161.154 469.836 161.027 469.723C160.907 469.603 160.847 469.436 160.847 469.223C160.847 469.01 160.907 468.846 161.027 468.733C161.154 468.62 161.334 468.563 161.567 468.563C161.794 468.563 161.967 468.62 162.087 468.733C162.214 468.846 162.277 469.01 162.277 469.223C162.277 469.436 162.214 469.603 162.087 469.723C161.967 469.836 161.794 469.893 161.567 469.893ZM162.097 470.733V475.733H161.027V470.733H162.097ZM163.771 475.733V470.733H164.681L164.781 471.633C164.914 471.306 165.111 471.06 165.371 470.893C165.638 470.72 165.964 470.633 166.351 470.633C166.451 470.633 166.551 470.643 166.651 470.663C166.751 470.676 166.834 470.7 166.901 470.733L166.751 471.673C166.678 471.646 166.594 471.626 166.501 471.613C166.414 471.593 166.294 471.583 166.141 471.583C165.934 471.583 165.731 471.64 165.531 471.753C165.331 471.86 165.164 472.023 165.031 472.243C164.904 472.463 164.841 472.743 164.841 473.083V475.733H163.771ZM169.955 470.633C170.441 470.633 170.871 470.736 171.245 470.943C171.618 471.15 171.908 471.45 172.115 471.843C172.328 472.23 172.435 472.693 172.435 473.233C172.435 473.773 172.328 474.24 172.115 474.633C171.908 475.02 171.618 475.316 171.245 475.523C170.871 475.73 170.441 475.833 169.955 475.833C169.468 475.833 169.038 475.73 168.665 475.523C168.291 475.316 167.998 475.02 167.785 474.633C167.571 474.24 167.465 473.773 167.465 473.233C167.465 472.693 167.571 472.23 167.785 471.843C167.998 471.45 168.291 471.15 168.665 470.943C169.038 470.736 169.468 470.633 169.955 470.633ZM169.955 471.473C169.655 471.473 169.398 471.543 169.185 471.683C168.978 471.816 168.818 472.013 168.705 472.273C168.591 472.533 168.535 472.853 168.535 473.233C168.535 473.606 168.591 473.926 168.705 474.193C168.818 474.453 168.978 474.653 169.185 474.793C169.398 474.926 169.655 474.993 169.955 474.993C170.255 474.993 170.508 474.926 170.715 474.793C170.921 474.653 171.081 474.453 171.195 474.193C171.308 473.926 171.365 473.606 171.365 473.233C171.365 472.853 171.308 472.533 171.195 472.273C171.081 472.013 170.921 471.816 170.715 471.683C170.508 471.543 170.255 471.473 169.955 471.473Z" fill="white"/>
</svg>
