<svg width="705" height="453" viewBox="0 0 705 453" fill="none" xmlns="http://www.w3.org/2000/svg">
<path d="M705 0.0839844V452.915H359.528H0.000488281V0.0839844H705Z" fill="#44813D"/>
<g opacity="0.3">
<path opacity="0.3" d="M683.327 173.019L540.561 19.3164L502.379 19.3164L683.327 214.126L683.327 173.019Z" fill="#5AA04C"/>
<path opacity="0.3" d="M683.328 60.6784L644.672 19.3164L606.49 19.3164L683.328 102.04L683.328 60.6784Z" fill="#5AA04C"/>
<path opacity="0.3" d="M683.327 271.062L449.494 19.3164L401.826 19.3164L683.327 322.382L683.327 271.062Z" fill="#5AA04C"/>
<path opacity="0.3" d="M683.329 379.063L348.943 19.3164L301.275 19.3164L683.329 430.383L683.329 379.063Z" fill="#5AA04C"/>
<path opacity="0.3" d="M633.526 433.702L248.626 19.3164L200.958 19.3164L585.858 433.702L633.526 433.702Z" fill="#5AA04C"/>
<path opacity="0.3" d="M532.972 433.702L148.072 19.3164L100.404 19.3164L485.304 433.702L532.972 433.702Z" fill="#5AA04C"/>
<path opacity="0.3" d="M432.42 433.702L47.7568 19.3164L21.6699 19.3164L21.6699 42.5505L384.752 433.702L432.42 433.702Z" fill="#5AA04C"/>
<path opacity="0.3" d="M332.104 433.701L21.6699 99.4863L21.6699 150.806L284.436 433.701L332.104 433.701Z" fill="#5AA04C"/>
<path opacity="0.3" d="M231.551 433.702L21.6699 207.743L21.6699 259.063L183.883 433.702L231.551 433.702Z" fill="#5AA04C"/>
<path opacity="0.3" d="M131.235 433.701L21.6699 315.743L21.6699 357.36L92.5789 433.701L131.235 433.701Z" fill="#5AA04C"/>
</g>
<g opacity="0.5">
<path opacity="0.5" d="M74.7924 19.3164L21.6699 76.5081L21.6699 117.87L113.211 19.3164L74.7924 19.3164Z" fill="#5AA04C"/>
<path opacity="0.5" d="M166.096 19.3164L21.6699 174.551L21.6699 225.871L213.764 19.3164L166.096 19.3164Z" fill="#5AA04C"/>
<path opacity="0.5" d="M266.413 19.3164L21.6699 282.807L21.6699 334.127L314.08 19.3164L266.413 19.3164Z" fill="#5AA04C"/>
<path opacity="0.5" d="M366.965 19.3164L21.6699 391.063L21.6699 433.702L29.7332 433.702L414.633 19.3164L366.965 19.3164Z" fill="#5AA04C"/>
<path opacity="0.5" d="M467.281 19.3164L82.6182 433.702L130.049 433.702L514.949 19.3164L467.281 19.3164Z" fill="#5AA04C"/>
<path opacity="0.5" d="M567.835 19.3164L182.935 433.702L230.602 433.702L615.503 19.3164L567.835 19.3164Z" fill="#5AA04C"/>
<path opacity="0.5" d="M683.329 19.3164L668.388 19.3164L283.488 433.702L331.156 433.702L683.329 54.5506L683.329 19.3164Z" fill="#5AA04C"/>
<path opacity="0.5" d="M683.328 111.231L383.803 433.701L431.471 433.701L683.328 162.551L683.328 111.231Z" fill="#5AA04C"/>
<path opacity="0.5" d="M683.328 219.488L484.356 433.702L523.012 433.702L683.328 261.106L683.328 219.488Z" fill="#5AA04C"/>
<path opacity="0.5" d="M683.326 316.255L574.236 433.702L612.892 433.702L683.326 357.872L683.326 316.255Z" fill="#5AA04C"/>
</g>
<path d="M684.989 435.49L20.0107 435.49L20.0107 17.2744L685.226 17.2744L685.226 435.49L684.989 435.49ZM23.568 431.66L681.669 431.66L681.669 21.1042L23.568 21.1042L23.568 431.66Z" fill="white"/>
<path d="M354.16 19.3174L350.603 19.3174L350.603 433.703L354.16 433.703L354.16 19.3174Z" fill="white"/>
<path d="M352.499 292.511C318.586 292.511 291.076 262.894 291.076 226.383C291.076 189.872 318.586 160.255 352.499 160.255C386.412 160.255 413.922 189.872 413.922 226.383C413.922 262.894 386.412 292.511 352.499 292.511ZM352.499 164.085C320.483 164.085 294.633 191.915 294.633 226.383C294.633 260.851 320.483 288.681 352.499 288.681C384.515 288.681 410.365 260.851 410.365 226.383C410.365 192.17 384.515 164.085 352.499 164.085Z" fill="white"/>
<path d="M684.988 360.937L574.475 360.937L574.475 92.084L684.988 92.084L684.988 360.937ZM578.032 357.107L681.431 357.107L681.431 95.9138L578.032 95.9138L578.032 357.107Z" fill="white"/>
<path d="M575.661 285.872C558.824 285.872 545.069 259.063 545.069 226.382C545.069 193.701 558.824 166.893 575.661 166.893C575.899 166.893 576.136 166.893 576.136 166.893L577.796 166.893L577.796 168.68L577.796 285.617L576.136 285.617C575.899 285.872 575.899 285.872 575.661 285.872ZM574.476 170.978C560.009 172.254 548.626 196.765 548.626 226.638C548.626 256.51 560.246 281.021 574.476 282.298L574.476 170.978Z" fill="white"/>
<path d="M684.988 281.276L650.364 281.276L650.364 171.999L684.988 171.999L684.988 281.276ZM653.921 277.446L681.431 277.446L681.431 175.829L653.921 175.829L653.921 277.446Z" fill="white"/>
<path d="M130.525 360.937L20.0117 360.937L20.0117 92.084L130.525 92.084L130.525 360.937ZM23.569 357.107L126.968 357.107L126.968 95.9138L23.569 95.9138L23.569 357.107Z" fill="white"/>
<path d="M129.338 285.872C129.101 285.872 128.864 285.872 128.864 285.872L127.204 285.872L127.204 284.084L127.204 167.147L128.864 167.147C129.101 167.147 129.338 167.147 129.575 167.147C146.413 167.147 160.168 193.956 160.168 226.637C159.931 259.318 146.176 285.872 129.338 285.872ZM130.524 170.977L130.524 282.297C144.99 281.021 156.374 256.51 156.374 226.637C156.374 196.509 144.99 171.999 130.524 170.977Z" fill="white"/>
<path d="M54.6361 281.276L20.0117 281.276L20.0117 171.999L54.6361 171.999L54.6361 281.276ZM23.569 277.446L51.0788 277.446L51.0788 175.829L23.569 175.829L23.569 277.446Z" fill="white"/>
<path d="M21.6706 40.2533L19.7734 40.2533L19.7734 17.2744L41.1173 17.2744L41.1173 19.3169C41.1173 30.8064 32.5797 40.2533 21.6706 40.2533ZM23.568 21.1042L23.568 36.168C30.9197 35.4021 36.8485 29.0192 37.56 21.1042L23.568 21.1042Z" fill="white"/>
<path d="M41.1173 435.491L19.7734 435.491L19.7734 412.512L21.6706 412.512C32.3425 412.512 41.1173 421.959 41.1173 433.448L41.1173 435.491ZM23.568 431.661L37.56 431.661C36.8485 423.746 30.9197 417.363 23.568 416.597L23.568 431.661Z" fill="white"/>
<path d="M684.99 435.489L663.646 435.489L663.646 433.702C663.646 422.213 672.421 412.766 683.092 412.766L684.99 412.766L684.99 435.489ZM667.44 431.659L681.433 431.659L681.433 416.595C674.081 417.361 668.389 423.744 667.44 431.659Z" fill="white"/>
<path d="M684.99 40.2533L683.092 40.2533C672.421 40.2533 663.646 30.8064 663.646 19.3169L663.646 17.2744L684.99 17.2744L684.99 40.2533ZM667.44 21.1042C668.152 29.0192 674.081 35.4021 681.433 36.168L681.433 21.1042L667.44 21.1042Z" fill="white"/>
<g opacity="0.8">
<line x1="51.5831" y1="30.2394" x2="51.5831" y2="421.38" stroke="#3BCADA" stroke-width="1.41238" stroke-linecap="round" stroke-dasharray="14.12 14.12"/>
<path d="M67.345 33.1602C67.345 34.3277 67.0211 35.243 66.3733 35.9058C65.733 36.5762 64.8141 36.9115 63.6164 36.9115C62.4187 36.9115 61.4959 36.5762 60.8481 35.9058C60.2078 35.243 59.8877 34.3277 59.8877 33.1602L59.8877 30.7535L67.345 30.7535L67.345 33.1602ZM60.7351 33.2506C60.7351 34.1018 60.9875 34.7646 61.4922 35.2392C62.0044 35.7213 62.7124 35.9623 63.6164 35.9623C64.5203 35.9623 65.2246 35.7213 65.7293 35.2392C66.2415 34.7646 66.4976 34.1018 66.4976 33.2506L66.4976 31.6574L60.7351 31.6574L60.7351 33.2506ZM59.7747 41.0887C59.7747 40.5539 59.8915 40.0756 60.125 39.6538C60.3585 39.2395 60.6937 38.9156 61.1306 38.682C61.575 38.4485 62.1023 38.3318 62.7124 38.3318C63.3226 38.3318 63.8461 38.4485 64.283 38.682C64.7274 38.9156 65.0664 39.2357 65.2999 39.6425C65.5334 40.0492 65.6502 40.5125 65.6502 41.0322C65.6502 41.5595 65.5372 42.0077 65.3112 42.3768C65.0852 42.7534 64.7764 43.0397 64.3847 43.2355C64.0005 43.4314 63.5674 43.5293 63.0853 43.5293C62.9573 43.5293 62.8405 43.5255 62.735 43.518C62.6296 43.5105 62.5354 43.4992 62.4526 43.4841L62.4526 38.9193L63.2548 38.9193L63.2548 43.0887L63.1644 42.6254C63.7068 42.6254 64.1248 42.4747 64.4186 42.1734C64.7124 41.8797 64.8593 41.4917 64.8593 41.0096C64.8593 40.6405 64.7726 40.3204 64.5994 40.0492C64.4337 39.7856 64.1888 39.5784 63.8649 39.4278C63.5486 39.2847 63.1644 39.2131 62.7124 39.2131C62.268 39.2131 61.8839 39.2884 61.5599 39.4391C61.236 39.5897 60.9875 39.8006 60.8142 40.0718C60.6485 40.3505 60.5656 40.682 60.5656 41.0661C60.5656 41.4804 60.6447 41.8156 60.8029 42.0717C60.9611 42.3354 61.1758 42.5463 61.447 42.7045L61.0289 43.4163C60.7728 43.2732 60.5506 43.0887 60.3623 42.8627C60.1739 42.6442 60.027 42.3843 59.9216 42.083C59.8237 41.7893 59.7747 41.4578 59.7747 41.0887ZM68.1925 47.487C68.1925 47.6828 68.1699 47.8674 68.1247 48.0406C68.0795 48.2139 68.0154 48.3495 67.9326 48.4474L67.1982 48.2101C67.2584 48.1197 67.2998 48.0218 67.3224 47.9163C67.3526 47.8109 67.3676 47.6941 67.3676 47.5661C67.3676 47.2422 67.2885 46.9898 67.1304 46.809C66.9797 46.6282 66.7349 46.5379 66.3959 46.5379L65.5372 46.5379L65.2434 46.5379L59.8877 46.5379L59.8877 45.6339L66.4863 45.6339C66.7349 45.6339 66.9646 45.6716 67.1756 45.7469C67.3865 45.8222 67.5673 45.9352 67.7179 46.0859C67.8686 46.2441 67.9853 46.4399 68.0682 46.6734C68.151 46.907 68.1925 47.1781 68.1925 47.487ZM65.5372 48.4248L64.7576 48.4248L64.7576 44.504L65.5372 44.504L65.5372 48.4248ZM59.7747 51.836C59.7747 51.3012 59.8915 50.8229 60.125 50.4011C60.3585 49.9868 60.6937 49.6628 61.1306 49.4293C61.575 49.1958 62.1023 49.0791 62.7124 49.0791C63.3226 49.0791 63.8461 49.1958 64.283 49.4293C64.7274 49.6628 65.0664 49.983 65.2999 50.3898C65.5334 50.7965 65.6502 51.2598 65.6502 51.7795C65.6502 52.3068 65.5372 52.755 65.3112 53.1241C65.0852 53.5007 64.7764 53.787 64.3847 53.9828C64.0005 54.1787 63.5674 54.2766 63.0853 54.2766C62.9573 54.2766 62.8405 54.2728 62.735 54.2653C62.6296 54.2578 62.5354 54.2465 62.4526 54.2314L62.4526 49.6666L63.2548 49.6666L63.2548 53.8359L63.1644 53.3727C63.7068 53.3727 64.1248 53.222 64.4186 52.9207C64.7124 52.627 64.8593 52.239 64.8593 51.7569C64.8593 51.3878 64.7726 51.0677 64.5994 50.7965C64.4337 50.5329 64.1888 50.3257 63.8649 50.1751C63.5486 50.0319 63.1644 49.9604 62.7124 49.9604C62.268 49.9604 61.8839 50.0357 61.5599 50.1864C61.236 50.337 60.9875 50.5479 60.8142 50.8191C60.6485 51.0978 60.5656 51.4293 60.5656 51.8134C60.5656 52.2277 60.6447 52.5629 60.8029 52.819C60.9611 53.0827 61.1758 53.2936 61.447 53.4518L61.0289 54.1636C60.7728 54.0205 60.5506 53.8359 60.3623 53.61C60.1739 53.3915 60.027 53.1316 59.9216 52.8303C59.8237 52.5366 59.7747 52.2051 59.7747 51.836ZM59.7747 58.0296C59.7747 57.4797 59.8915 56.9712 60.125 56.5042C60.3585 56.0447 60.6899 55.6907 61.1193 55.4421L61.6729 56.2104C61.3264 56.3761 61.0553 56.6172 60.8594 56.9336C60.6636 57.2575 60.5656 57.6454 60.5656 58.0974C60.5656 58.4966 60.641 58.8092 60.7916 59.0352C60.9498 59.2611 61.1532 59.3741 61.4018 59.3741C61.5599 59.3741 61.7031 59.3214 61.8311 59.216C61.9667 59.118 62.0646 58.9259 62.1249 58.6397L62.4074 57.2838C62.5204 56.7339 62.7087 56.3385 62.9723 56.0974C63.236 55.8639 63.5636 55.7472 63.9553 55.7472C64.2642 55.7472 64.5467 55.8338 64.8028 56.007C65.0589 56.1878 65.2623 56.4402 65.4129 56.7641C65.5711 57.0955 65.6502 57.4834 65.6502 57.9279C65.6502 58.4853 65.541 58.9561 65.3225 59.3402C65.1041 59.7244 64.7952 60.0106 64.396 60.199L63.8988 59.4419C64.2303 59.3139 64.4713 59.1067 64.622 58.8205C64.7802 58.5342 64.8593 58.2367 64.8593 57.9279C64.8593 57.6567 64.8216 57.4232 64.7463 57.2273C64.6709 57.039 64.5655 56.8921 64.4299 56.7867C64.3018 56.6887 64.155 56.6398 63.9892 56.6398C63.8235 56.6398 63.6691 56.6963 63.526 56.8093C63.3904 56.9223 63.2925 57.1332 63.2322 57.442L62.9384 58.8544C62.833 59.3817 62.6597 59.7508 62.4187 59.9617C62.1776 60.1726 61.8839 60.2781 61.5373 60.2781C61.1833 60.2781 60.8707 60.1839 60.5995 59.9956C60.3359 59.8073 60.1325 59.5436 59.9894 59.2047C59.8463 58.8657 59.7747 58.474 59.7747 58.0296ZM63.5373 65.2535C63.9591 65.2535 64.283 65.1405 64.509 64.9145C64.7425 64.6886 64.8593 64.3684 64.8593 63.9541C64.8593 63.5624 64.7726 63.231 64.5994 62.9598C64.4337 62.6886 64.1625 62.489 63.7859 62.361L64.2378 61.6265C64.6596 61.7772 64.9986 62.0559 65.2547 62.4627C65.5184 62.8694 65.6502 63.3741 65.6502 63.9767C65.6502 64.3835 65.5786 64.7526 65.4355 65.084C65.2999 65.4155 65.089 65.6753 64.8028 65.8637C64.5241 66.0595 64.1625 66.1574 63.7181 66.1574L60.9837 66.1574C60.7125 66.1574 60.5769 66.3005 60.5769 66.5868C60.5769 66.7299 60.5958 66.8693 60.6334 67.0049L59.9216 66.9597C59.8463 66.809 59.8086 66.6132 59.8086 66.3721C59.8086 66.1537 59.85 65.9578 59.9329 65.7846C60.0157 65.6113 60.14 65.4757 60.3058 65.3778C60.479 65.2799 60.6937 65.2309 60.9498 65.2309L61.0628 65.2309L61.0289 65.4569C60.7351 65.3665 60.4941 65.2121 60.3058 64.9936C60.125 64.7752 59.9894 64.5304 59.899 64.2592C59.8161 63.988 59.7747 63.7206 59.7747 63.457C59.7747 63.1255 59.8312 62.8167 59.9442 62.5304C60.0572 62.2442 60.2267 62.0145 60.4526 61.8412C60.6862 61.6755 60.9724 61.5926 61.3114 61.5926C61.7332 61.5926 62.0797 61.732 62.3509 62.0107C62.6296 62.2969 62.8179 62.6924 62.9158 63.1971L63.3565 65.4343L62.6108 65.4343L62.2379 63.6151C62.1626 63.246 62.0571 62.9711 61.9215 62.7903C61.7859 62.6095 61.5976 62.5191 61.3566 62.5191C61.1231 62.5191 60.931 62.6095 60.7803 62.7903C60.6372 62.9786 60.5656 63.2423 60.5656 63.5813C60.5656 63.7997 60.592 64.0068 60.6447 64.2027C60.705 64.4061 60.7916 64.5869 60.9046 64.745C61.0251 64.9032 61.172 65.0275 61.3453 65.1179C61.526 65.2083 61.737 65.2535 61.978 65.2535L63.5373 65.2535Z" fill="#3BCADA"/>
</g>
<g opacity="0.8">
<line x1="305.81" y1="28.7062" x2="305.81" y2="419.846" stroke="#3BCADA" stroke-width="1.41238" stroke-linecap="round" stroke-dasharray="14.12 14.12"/>
<path d="M321.572 37.9623L314.114 37.9623L314.114 37.1035L318.803 37.1035L320.769 37.2052L320.769 37.1939L314.114 34.742L314.114 33.9737L320.769 31.5218L320.769 31.5105L318.803 31.6122L314.114 31.6122L314.114 30.7535L321.572 30.7535L321.572 32.1433L317.041 33.7816L315.176 34.3466L315.176 34.3692L317.029 34.9454L321.572 36.5725L321.572 37.9623ZM314.001 42.5011C314.001 41.9663 314.118 41.488 314.352 41.0661C314.585 40.6518 314.92 40.3279 315.357 40.0944C315.802 39.8609 316.329 39.7441 316.939 39.7441C317.549 39.7441 318.073 39.8609 318.51 40.0944C318.954 40.3279 319.293 40.6481 319.526 41.0548C319.76 41.4616 319.877 41.9249 319.877 42.4446C319.877 42.9719 319.764 43.4201 319.538 43.7892C319.312 44.1658 319.003 44.4521 318.611 44.6479C318.227 44.8438 317.794 44.9417 317.312 44.9417C317.184 44.9417 317.067 44.9379 316.962 44.9304C316.856 44.9229 316.762 44.9116 316.679 44.8965L316.679 40.3317L317.481 40.3317L317.481 44.501L317.391 44.0378C317.933 44.0378 318.351 43.8871 318.645 43.5858C318.939 43.292 319.086 42.9041 319.086 42.422C319.086 42.0529 318.999 41.7328 318.826 41.4616C318.66 41.198 318.415 40.9908 318.092 40.8402C317.775 40.697 317.391 40.6255 316.939 40.6255C316.495 40.6255 316.11 40.7008 315.787 40.8515C315.463 41.0021 315.214 41.213 315.041 41.4842C314.875 41.7629 314.792 42.0943 314.792 42.4785C314.792 42.8928 314.871 43.228 315.029 43.4841C315.188 43.7478 315.402 43.9587 315.674 44.1169L315.255 44.8287C314.999 44.6856 314.777 44.501 314.589 44.275C314.4 44.0566 314.254 43.7967 314.148 43.4954C314.05 43.2016 314.001 42.8702 314.001 42.5011ZM320.848 47.1128C320.848 46.9094 320.909 46.7437 321.029 46.6156C321.157 46.4951 321.323 46.4348 321.526 46.4348C321.73 46.4348 321.892 46.4951 322.012 46.6156C322.14 46.7437 322.204 46.9094 322.204 47.1128C322.204 47.3162 322.14 47.4781 322.012 47.5986C321.892 47.7267 321.73 47.7907 321.526 47.7907C321.323 47.7907 321.157 47.7267 321.029 47.5986C320.909 47.4781 320.848 47.3162 320.848 47.1128ZM319.764 47.5647L314.114 47.5647L314.114 46.6608L319.764 46.6608L319.764 47.5647ZM319.877 52.001C319.877 52.5358 319.76 53.0066 319.526 53.4134C319.293 53.8277 318.954 54.1516 318.51 54.3851C318.073 54.6186 317.549 54.7354 316.939 54.7354C316.329 54.7354 315.802 54.6186 315.357 54.3851C314.92 54.1516 314.585 53.8277 314.352 53.4134C314.118 53.0066 314.001 52.5358 314.001 52.001C314.001 51.4737 314.118 51.0029 314.352 50.5886C314.585 50.1743 314.92 49.8504 315.357 49.6169C315.802 49.3834 316.329 49.2666 316.939 49.2666C317.549 49.2666 318.073 49.3834 318.51 49.6169C318.954 49.8504 319.293 50.1743 319.526 50.5886C319.76 51.0029 319.877 51.4737 319.877 52.001ZM319.097 52.001C319.097 51.6168 319.01 51.2892 318.837 51.018C318.664 50.7468 318.415 50.5359 318.092 50.3853C317.775 50.2421 317.391 50.1706 316.939 50.1706C316.495 50.1706 316.11 50.2421 315.787 50.3853C315.463 50.5359 315.214 50.7468 315.041 51.018C314.868 51.2892 314.781 51.6168 314.781 52.001C314.781 52.3852 314.868 52.7128 315.041 52.984C315.214 53.2552 315.463 53.4623 315.787 53.6055C316.11 53.7561 316.495 53.8314 316.939 53.8314C317.391 53.8314 317.775 53.7561 318.092 53.6055C318.415 53.4623 318.664 53.2552 318.837 52.984C319.01 52.7128 319.097 52.3852 319.097 52.001ZM317.538 60.1319L316.6 60.1319L316.6 56.4032L317.538 56.4032L317.538 60.1319ZM319.877 64.5358C319.877 64.9275 319.816 65.2703 319.696 65.5641C319.575 65.8654 319.402 66.1252 319.176 66.3437C318.95 66.5621 318.683 66.7391 318.374 66.8747L317.967 66.016C318.329 65.8955 318.604 65.7109 318.792 65.4624C318.988 65.2213 319.086 64.9049 319.086 64.5132C319.086 64.1366 318.999 63.8127 318.826 63.5415C318.66 63.2704 318.415 63.0632 318.092 62.9201C317.775 62.777 317.391 62.7054 316.939 62.7054C316.495 62.7054 316.11 62.777 315.787 62.9201C315.463 63.0632 315.214 63.2704 315.041 63.5415C314.875 63.8127 314.792 64.1366 314.792 64.5132C314.792 64.807 314.837 65.0594 314.928 65.2703C315.018 65.4887 315.15 65.6657 315.323 65.8013C315.497 65.9445 315.707 66.0424 315.956 66.0951L315.662 66.9312C315.316 66.8032 315.018 66.6262 314.77 66.4002C314.521 66.1817 314.329 65.9143 314.193 65.5979C314.065 65.2891 314.001 64.9351 314.001 64.5358C314.001 64.0086 314.118 63.5378 314.352 63.1235C314.585 62.7092 314.92 62.3853 315.357 62.1518C315.802 61.9182 316.329 61.8015 316.939 61.8015C317.549 61.8015 318.073 61.9182 318.51 62.1518C318.954 62.3853 319.293 62.7092 319.526 63.1235C319.76 63.5378 319.877 64.0086 319.877 64.5358ZM317.764 71.8188C318.186 71.8188 318.51 71.7059 318.736 71.4799C318.969 71.2539 319.086 70.9338 319.086 70.5195C319.086 70.1278 318.999 69.7963 318.826 69.5251C318.66 69.254 318.389 69.0544 318.012 68.9263L318.464 68.1919C318.886 68.3425 319.225 68.6212 319.481 69.028C319.745 69.4348 319.877 69.9394 319.877 70.5421C319.877 70.9488 319.805 71.3179 319.662 71.6494C319.526 71.9808 319.316 72.2407 319.029 72.429C318.751 72.6248 318.389 72.7228 317.945 72.7228L315.21 72.7228C314.939 72.7228 314.803 72.8659 314.803 73.1521C314.803 73.2952 314.822 73.4346 314.86 73.5702L314.148 73.525C314.073 73.3743 314.035 73.1785 314.035 72.9374C314.035 72.719 314.077 72.5231 314.159 72.3499C314.242 72.1766 314.367 72.0411 314.532 71.9431C314.706 71.8452 314.92 71.7962 315.176 71.7962L315.289 71.7962L315.255 72.0222C314.962 71.9318 314.721 71.7774 314.532 71.559C314.352 71.3405 314.216 71.0957 314.126 70.8245C314.043 70.5534 314.001 70.2859 314.001 70.0223C314.001 69.6909 314.058 69.382 314.171 69.0958C314.284 68.8095 314.453 68.5798 314.679 68.4065C314.913 68.2408 315.199 68.158 315.538 68.158C315.96 68.158 316.306 68.2973 316.577 68.576C316.856 68.8623 317.044 69.2577 317.142 69.7624L317.583 71.9996L316.837 71.9996L316.464 70.1805C316.389 69.8114 316.284 69.5364 316.148 69.3557C316.012 69.1749 315.824 69.0845 315.583 69.0845C315.35 69.0845 315.158 69.1749 315.007 69.3557C314.864 69.544 314.792 69.8076 314.792 70.1466C314.792 70.365 314.819 70.5722 314.871 70.768C314.932 70.9714 315.018 71.1522 315.131 71.3104C315.252 71.4686 315.399 71.5929 315.572 71.6833C315.753 71.7736 315.964 71.8188 316.205 71.8188L317.764 71.8188ZM314.114 74.9194L319.764 74.9194L319.764 75.7103L318.882 75.7668C319.229 75.9702 319.481 76.2338 319.639 76.5577C319.798 76.8892 319.877 77.2281 319.877 77.5746C319.877 77.9739 319.786 78.3505 319.606 78.7045C319.425 79.0586 319.146 79.3297 318.769 79.5181C319.026 79.6386 319.233 79.8081 319.391 80.0265C319.557 80.245 319.677 80.4822 319.752 80.7384C319.835 81.002 319.877 81.2506 319.877 81.4841C319.877 81.8457 319.801 82.1884 319.651 82.5123C319.5 82.8437 319.267 83.1149 318.95 83.3258C318.634 83.5367 318.227 83.6422 317.73 83.6422L314.114 83.6422L314.114 82.7383L317.64 82.7383C318.152 82.7383 318.521 82.6102 318.747 82.3541C318.973 82.098 319.086 81.7816 319.086 81.405C319.086 81.1112 319.014 80.8363 318.871 80.5802C318.728 80.3241 318.517 80.1169 318.238 79.9587C317.96 79.8081 317.617 79.7327 317.21 79.7327L314.114 79.7327L314.114 78.8288L317.64 78.8288C318.152 78.8288 318.521 78.7008 318.747 78.4447C318.973 78.1885 319.086 77.8722 319.086 77.4955C319.086 77.247 319.018 76.9908 318.882 76.7272C318.754 76.4711 318.547 76.2564 318.261 76.0832C317.975 75.9099 317.598 75.8233 317.131 75.8233L314.114 75.8233L314.114 74.9194ZM311.741 85.6887L319.764 85.6887L319.764 86.4797L318.385 86.5588L318.543 86.4345C318.807 86.5324 319.037 86.6793 319.233 86.8751C319.436 87.071 319.594 87.3083 319.707 87.587C319.82 87.8657 319.877 88.167 319.877 88.4909C319.877 88.9504 319.76 89.3722 319.526 89.7564C319.293 90.1481 318.958 90.4607 318.521 90.6942C318.084 90.9277 317.557 91.0445 316.939 91.0445C316.329 91.0445 315.802 90.9239 315.357 90.6829C314.92 90.4494 314.585 90.1368 314.352 89.7451C314.118 89.3534 314.001 88.924 314.001 88.457C314.001 87.99 314.114 87.5794 314.34 87.2254C314.574 86.8789 314.868 86.6303 315.222 86.4797L315.391 86.5926L311.741 86.5926L311.741 85.6887ZM314.792 88.3666C314.792 88.924 314.988 89.3571 315.38 89.666C315.771 89.9823 316.291 90.1405 316.939 90.1405C317.587 90.1405 318.107 89.9861 318.498 89.6773C318.89 89.376 319.086 88.9504 319.086 88.4005C319.086 88.0389 318.995 87.7225 318.815 87.4514C318.641 87.1802 318.393 86.9693 318.069 86.8186C317.753 86.668 317.376 86.5926 316.939 86.5926C316.51 86.5926 316.133 86.6642 315.809 86.8073C315.485 86.958 315.233 87.1651 315.052 87.4288C314.879 87.7 314.792 88.0126 314.792 88.3666ZM319.877 95.1116C319.877 95.6464 319.76 96.1172 319.526 96.5239C319.293 96.9382 318.954 97.2621 318.51 97.4957C318.073 97.7292 317.549 97.8459 316.939 97.8459C316.329 97.8459 315.802 97.7292 315.357 97.4957C314.92 97.2621 314.585 96.9382 314.352 96.5239C314.118 96.1172 314.001 95.6464 314.001 95.1116C314.001 94.5843 314.118 94.1135 314.352 93.6992C314.585 93.2849 314.92 92.961 315.357 92.7275C315.802 92.494 316.329 92.3772 316.939 92.3772C317.549 92.3772 318.073 92.494 318.51 92.7275C318.954 92.961 319.293 93.2849 319.526 93.6992C319.76 94.1135 319.877 94.5843 319.877 95.1116ZM319.097 95.1116C319.097 94.7274 319.01 94.3997 318.837 94.1286C318.664 93.8574 318.415 93.6465 318.092 93.4958C317.775 93.3527 317.391 93.2811 316.939 93.2811C316.495 93.2811 316.11 93.3527 315.787 93.4958C315.463 93.6465 315.214 93.8574 315.041 94.1286C314.868 94.3997 314.781 94.7274 314.781 95.1116C314.781 95.4957 314.868 95.8234 315.041 96.0946C315.214 96.3658 315.463 96.5729 315.787 96.716C316.11 96.8667 316.495 96.942 316.939 96.942C317.391 96.942 317.775 96.8667 318.092 96.716C318.415 96.5729 318.664 96.3658 318.837 96.0946C319.01 95.8234 319.097 95.4957 319.097 95.1116Z" fill="#3BCADA"/>
</g>
<g opacity="0.8">
<line x1="551.564" y1="30.2394" x2="551.564" y2="421.38" stroke="#3BCADA" stroke-width="1.41238" stroke-linecap="round" stroke-dasharray="14.12 14.12"/>
<path d="M559.869 36.6968L559.869 35.7364L561.936 34.9454L561.936 31.567L559.869 30.7761L559.869 29.827L567.326 32.7308L567.326 33.8042L559.869 36.6968ZM562.784 31.8947L562.784 34.6178L566.456 33.2506L562.784 31.8947ZM567.123 38.9792L561.428 38.9792C561.149 38.9792 560.942 39.0583 560.806 39.2164C560.671 39.3746 560.603 39.578 560.603 39.8266C560.603 40.045 560.641 40.2334 560.716 40.3915C560.791 40.5497 560.893 40.6929 561.021 40.8209L560.264 41.1373C560.106 40.964 559.982 40.7569 559.891 40.5158C559.801 40.2823 559.756 40.0111 559.756 39.7023C559.756 39.4161 559.805 39.1487 559.903 38.9001C560.008 38.6515 560.17 38.4519 560.388 38.3012C560.614 38.1581 560.908 38.0828 561.27 38.0752L566.874 38.0753L567.123 38.9792ZM565.518 41.0356L564.739 41.0356L564.739 36.9453L565.518 36.9453L565.518 41.0356ZM563.518 45.6789C563.94 45.6789 564.264 45.5659 564.49 45.3399C564.723 45.1139 564.84 44.7938 564.84 44.3795C564.84 43.9878 564.754 43.6563 564.58 43.3852C564.415 43.114 564.143 42.9144 563.767 42.7863L564.219 42.0519C564.641 42.2025 564.98 42.4812 565.236 42.888C565.499 43.2948 565.631 43.7995 565.631 44.4021C565.631 44.8088 565.56 45.1779 565.416 45.5094C565.281 45.8408 565.07 46.1007 564.784 46.289C564.505 46.4849 564.143 46.5828 563.699 46.5828L560.965 46.5828C560.693 46.5828 560.558 46.7259 560.558 47.0121C560.558 47.1553 560.577 47.2946 560.614 47.4302L559.903 47.385C559.827 47.2344 559.79 47.0385 559.79 46.7975C559.79 46.579 559.831 46.3832 559.914 46.2099C559.997 46.0367 560.121 45.9011 560.287 45.8032C560.46 45.7052 560.675 45.6563 560.931 45.6563L561.044 45.6563L561.01 45.8822C560.716 45.7919 560.475 45.6374 560.287 45.419C560.106 45.2005 559.97 44.9557 559.88 44.6845C559.797 44.4134 559.756 44.146 559.756 43.8823C559.756 43.5509 559.812 43.242 559.925 42.9558C560.038 42.6696 560.208 42.4398 560.434 42.2666C560.667 42.1008 560.953 42.018 561.292 42.018C561.714 42.018 562.061 42.1573 562.332 42.436C562.611 42.7223 562.799 43.1178 562.897 43.6224L563.337 45.8596L562.592 45.8596L562.219 44.0405C562.144 43.6714 562.038 43.3965 561.902 43.2157C561.767 43.0349 561.579 42.9445 561.338 42.9445C561.104 42.9445 560.912 43.0349 560.761 43.2157C560.618 43.404 560.547 43.6676 560.547 44.0066C560.547 44.2251 560.573 44.4322 560.626 44.6281C560.686 44.8314 560.773 45.0122 560.886 45.1704C561.006 45.3286 561.153 45.4529 561.326 45.5433C561.507 45.6337 561.718 45.6789 561.959 45.6789L563.518 45.6789ZM557.496 52.8583L561.417 52.8583L561.304 53.0165C560.972 52.9638 560.69 52.8357 560.456 52.6323C560.23 52.4365 560.057 52.1917 559.936 51.8979C559.816 51.6117 559.756 51.3066 559.756 50.9827C559.756 50.5157 559.872 50.0863 560.106 49.6946C560.339 49.3029 560.675 48.9903 561.112 48.7568C561.556 48.5233 562.083 48.4065 562.693 48.4065C563.319 48.4065 563.85 48.5308 564.287 48.7794C564.723 49.028 565.055 49.3556 565.281 49.7624C565.514 50.1692 565.631 50.6061 565.631 51.0731C565.631 51.3895 565.571 51.6832 565.45 51.9544C565.337 52.2256 565.172 52.4553 564.953 52.6436C564.742 52.8395 564.49 52.9675 564.196 53.0278L564.196 52.8922L565.518 52.9713L565.518 53.7622L557.496 53.7622L557.496 52.8583ZM560.547 51.0731C560.547 51.4271 560.633 51.736 560.806 51.9996C560.987 52.2708 561.24 52.4817 561.564 52.6323C561.895 52.783 562.283 52.8583 562.727 52.8583C563.179 52.8583 563.56 52.783 563.868 52.6323C564.185 52.4892 564.426 52.2858 564.592 52.0222C564.757 51.7586 564.84 51.4497 564.84 51.0957C564.84 50.5383 564.644 50.1014 564.253 49.785C563.861 49.4686 563.341 49.3104 562.693 49.3104C562.046 49.3104 561.526 49.4649 561.134 49.7737C560.742 50.0825 560.547 50.5157 560.547 51.0731ZM559.756 57.9084C559.756 57.5469 559.823 57.2041 559.959 56.8802C560.095 56.5639 560.313 56.304 560.614 56.1006C560.923 55.9048 561.322 55.8068 561.812 55.8068L565.518 55.8068L565.518 56.7108L562.049 56.7108C561.477 56.7108 561.081 56.835 560.863 57.0836C560.652 57.3322 560.547 57.6825 560.547 58.1344C560.547 58.3453 560.58 58.5525 560.648 58.7559C560.724 58.9593 560.837 59.14 560.987 59.2982C561.145 59.4639 561.345 59.592 561.586 59.6824C561.827 59.7803 562.113 59.8293 562.445 59.8293L565.518 59.8293L565.518 60.7332L559.869 60.7332L559.869 59.9423L560.727 59.8858C560.388 59.6899 560.14 59.4225 559.982 59.0835C559.831 58.7521 559.756 58.3604 559.756 57.9084ZM559.756 65.1984C559.756 64.6636 559.872 64.1853 560.106 63.7635C560.339 63.3492 560.675 63.0252 561.112 62.7917C561.556 62.5582 562.083 62.4415 562.693 62.4415C563.304 62.4415 563.827 62.5582 564.264 62.7917C564.708 63.0252 565.047 63.3454 565.281 63.7522C565.514 64.1589 565.631 64.6222 565.631 65.1419C565.631 65.6692 565.518 66.1174 565.292 66.4865C565.066 66.8631 564.757 67.1494 564.366 67.3452C563.981 67.5411 563.548 67.639 563.066 67.639C562.938 67.639 562.821 67.6352 562.716 67.6277C562.611 67.6202 562.516 67.6089 562.434 67.5938L562.434 63.029L563.236 63.029L563.236 67.1983L563.145 66.7351C563.688 66.7351 564.106 66.5844 564.4 66.2831C564.693 65.9894 564.84 65.6014 564.84 65.1193C564.84 64.7502 564.754 64.4301 564.58 64.1589C564.415 63.8953 564.17 63.6881 563.846 63.5375C563.53 63.3943 563.145 63.3228 562.693 63.3228C562.249 63.3228 561.865 63.3981 561.541 63.5488C561.217 63.6994 560.968 63.9103 560.795 64.1815C560.629 64.4602 560.547 64.7917 560.547 65.1758C560.547 65.5901 560.626 65.9253 560.784 66.1814C560.942 66.4451 561.157 66.656 561.428 66.8142L561.01 67.526C560.754 67.3829 560.532 67.1983 560.343 66.9724C560.155 66.7539 560.008 66.494 559.903 66.1927C559.805 65.899 559.756 65.5675 559.756 65.1984Z" fill="#3BCADA"/>
</g>
<circle cx="36.9235" cy="223.75" r="12.4746" fill="white" stroke="#AFAFAF" stroke-width="1.41238"/>
<path d="M36.5902 230.473C35.3906 230.473 34.336 230.21 33.4265 229.682C32.5301 229.155 31.8314 228.39 31.3305 227.389C30.8296 226.387 30.5791 225.181 30.5791 223.77C30.5791 222.373 30.8427 221.173 31.37 220.171C31.8973 219.156 32.6421 218.379 33.6044 217.838C34.5667 217.298 35.6938 217.027 36.9856 217.027C38.3961 217.027 39.5364 217.291 40.4064 217.818C41.2764 218.332 41.9685 219.136 42.4826 220.231L39.9516 221.318C39.7407 220.619 39.3782 220.105 38.8641 219.776C38.3632 219.433 37.7436 219.262 37.0054 219.262C36.2672 219.262 35.6279 219.44 35.0874 219.796C34.5469 220.138 34.1317 220.646 33.8417 221.318C33.5517 221.977 33.4067 222.788 33.4067 223.75C33.4067 224.739 33.5451 225.576 33.8219 226.261C34.0987 226.934 34.5074 227.441 35.0479 227.784C35.6015 228.114 36.2804 228.278 37.0845 228.278C37.5195 228.278 37.9216 228.226 38.2907 228.12C38.673 228.015 39.0025 227.856 39.2793 227.646C39.5562 227.435 39.7737 227.164 39.9319 226.835C40.09 226.505 40.1691 226.123 40.1691 225.688V225.391H36.7484V223.394H42.5222V230.275H40.6041L40.4064 227.428L40.881 227.764C40.591 228.634 40.0769 229.307 39.3387 229.781C38.6136 230.242 37.6975 230.473 36.5902 230.473Z" fill="#636363"/>
</svg>
